Bella once again finds herself surrounded by danger as Seattle is ravaged by a string of mysterious killings and a malicious vampire continues her quest for revenge. In the midst of it all, she is forced to choose between her love for Edward and her friendship with Jacob -- knowing that her decision has the potential to ignite the struggle between vampire and werewolf. With her graduation quickly approaching, Bella is confronted with the most important decision of her life.


  
http://www.imdb.com/title/tt1325004/
MOVIEmeter: Up 200% in popularity this week.
Genre:Fantasy | Romance | Thriller 



 
Video
Format : xvid
Codec ID : xvid
Duration : 1h 53mn
Bit rate : 1 432 Kbps
Width : 700 pixels
Height : 304 pixels
Display aspect ratio : 2.35:1
Frame rate : 25.000 fps
Bits/(Pixel*Frame) : 0.269
Stream size : 1.13 GiB (95%)

Audio
ID : 1
Format : MPEG Audio
Format version : Version 1
Format profile : Layer 2
Codec ID : 50
Duration : 1h 53mn
Bit rate mode : Constant
Bit rate : 64.0 Kbps
Channel(s) : 2 channels
Sampling rate : 44.1 KHz
Stream size : 51.8 MiB (4%)
Alignment : Aligned on interleaves
Interleave, duration : 26 ms (0.65 video frame)
Interleave, preload duration : 522 ms


Screenshots
 
http://postimg.com/image/18000/17363.jpg
 
http://postimg.com/image/18000/17364.jpg